<svg width="146" height="31" viewBox="0 0 146 31" fill="none" xmlns="http://www.w3.org/2000/svg">
<path d="M21.12 10.72C21.12 12.2133 20.76 13.6133 20.04 14.92C19.3467 16.2267 18.24 17.28 16.72 18.08C15.2267 18.88 13.3333 19.28 11.04 19.28H6.36V30H0.76V2.08H11.04C13.2 2.08 15.04 2.45333 16.56 3.2C18.08 3.94667 19.2133 4.97333 19.96 6.28C20.7333 7.58667 21.12 9.06667 21.12 10.72ZM10.8 14.76C12.3467 14.76 13.4933 14.4133 14.24 13.72C14.9867 13 15.36 12 15.36 10.72C15.36 8 13.84 6.64 10.8 6.64H6.36V14.76H10.8ZM30.6959 11.28C31.4159 10.1067 32.3493 9.18667 33.4959 8.52C34.6693 7.85333 36.0026 7.52 37.4959 7.52V13.4H36.0159C34.2559 13.4 32.9226 13.8133 32.0159 14.64C31.1359 15.4667 30.6959 16.9067 30.6959 18.96V30H25.0959V7.84H30.6959V11.28ZM51.1078 30.36C48.9745 30.36 47.0545 29.8933 45.3478 28.96C43.6411 28 42.2945 26.6533 41.3078 24.92C40.3478 23.1867 39.8678 21.1867 39.8678 18.92C39.8678 16.6533 40.3611 14.6533 41.3478 12.92C42.3611 11.1867 43.7345 9.85333 45.4678 8.92C47.2011 7.96 49.1345 7.48 51.2678 7.48C53.4011 7.48 55.3345 7.96 57.0678 8.92C58.8011 9.85333 60.1611 11.1867 61.1478 12.92C62.1611 14.6533 62.6678 16.6533 62.6678 18.92C62.6678 21.1867 62.1478 23.1867 61.1078 24.92C60.0945 26.6533 58.7078 28 56.9478 28.96C55.2145 29.8933 53.2678 30.36 51.1078 30.36ZM51.1078 25.48C52.1211 25.48 53.0678 25.24 53.9478 24.76C54.8545 24.2533 55.5745 23.5067 56.1078 22.52C56.6411 21.5333 56.9078 20.3333 56.9078 18.92C56.9078 16.8133 56.3478 15.2 55.2278 14.08C54.1345 12.9333 52.7878 12.36 51.1878 12.36C49.5878 12.36 48.2411 12.9333 47.1478 14.08C46.0811 15.2 45.5478 16.8133 45.5478 18.92C45.5478 21.0267 46.0678 22.6533 47.1078 23.8C48.1745 24.92 49.5078 25.48 51.1078 25.48ZM81.9069 6.6V13.6H91.3069V18.04H81.9069V25.44H92.5069V30H76.3069V2.04H92.5069V6.6H81.9069ZM96.1559 18.84C96.1559 16.6 96.5959 14.6133 97.4759 12.88C98.3826 11.1467 99.6093 9.81333 101.156 8.88C102.703 7.94667 104.423 7.48 106.316 7.48C107.756 7.48 109.129 7.8 110.436 8.44C111.743 9.05333 112.783 9.88 113.556 10.92V0.4H119.236V30H113.556V26.72C112.863 27.8133 111.889 28.6933 110.636 29.36C109.383 30.0267 107.929 30.36 106.276 30.36C104.409 30.36 102.703 29.88 101.156 28.92C99.6093 27.96 98.3826 26.6133 97.4759 24.88C96.5959 23.12 96.1559 21.1067 96.1559 18.84ZM113.596 18.92C113.596 17.56 113.329 16.4 112.796 15.44C112.263 14.4533 111.543 13.7067 110.636 13.2C109.729 12.6667 108.756 12.4 107.716 12.4C106.676 12.4 105.716 12.6533 104.836 13.16C103.956 13.6667 103.236 14.4133 102.676 15.4C102.143 16.36 101.876 17.5067 101.876 18.84C101.876 20.1733 102.143 21.3467 102.676 22.36C103.236 23.3467 103.956 24.1067 104.836 24.64C105.743 25.1733 106.703 25.44 107.716 25.44C108.756 25.44 109.729 25.1867 110.636 24.68C111.543 24.1467 112.263 23.4 112.796 22.44C113.329 21.4533 113.596 20.28 113.596 18.92ZM145.625 7.84V30H139.985V27.2C139.265 28.16 138.319 28.92 137.145 29.48C135.999 30.0133 134.745 30.28 133.385 30.28C131.652 30.28 130.119 29.92 128.785 29.2C127.452 28.4533 126.399 27.3733 125.625 25.96C124.879 24.52 124.505 22.8133 124.505 20.84V7.84H130.105V20.04C130.105 21.8 130.545 23.16 131.425 24.12C132.305 25.0533 133.505 25.52 135.025 25.52C136.572 25.52 137.785 25.0533 138.665 24.12C139.545 23.16 139.985 21.8 139.985 20.04V7.84H145.625Z" fill="white"/>
</svg>
